<?xml version="1.0" encoding="UTF-8" standalone="no"?>
<!-- Created with Inkscape (http://www.inkscape.org/) -->

<svg
   xmlns:dc="http://purl.org/dc/elements/1.1/"
   xmlns:cc="http://creativecommons.org/ns#"
   xmlns:rdf="http://www.w3.org/1999/02/22-rdf-syntax-ns#"
   xmlns:svg="http://www.w3.org/2000/svg"
   xmlns="http://www.w3.org/2000/svg"
   xmlns:sodipodi="http://sodipodi.sourceforge.net/DTD/sodipodi-0.dtd"
   xmlns:inkscape="http://www.inkscape.org/namespaces/inkscape"
   width="128"
   height="128"
   viewBox="0 0 33.866666 33.866668"
   version="1.1"
   id="svg8"
   inkscape:version="0.92.4 (5da689c313, 2019-01-14)"
   sodipodi:docname="1. Stethoscope medicine, health, doctor, hospital, equipment, treatment.svg">
  <defs
     id="defs2" />
  <sodipodi:namedview
     id="base"
     pagecolor="#ffffff"
     bordercolor="#666666"
     borderopacity="1.0"
     inkscape:pageopacity="0.0"
     inkscape:pageshadow="2"
     inkscape:zoom="2"
     inkscape:cx="-56.164072"
     inkscape:cy="85.606"
     inkscape:document-units="px"
     inkscape:current-layer="layer1"
     showgrid="false"
     units="px"
     inkscape:window-width="1366"
     inkscape:window-height="706"
     inkscape:window-x="-8"
     inkscape:window-y="-8"
     inkscape:window-maximized="1"
     showguides="true">
    <inkscape:grid
       type="xygrid"
       id="grid815"
       empspacing="1"
       originx="0"
       originy="0"
       spacingx="0"
       spacingy="0"
       snapvisiblegridlinesonly="true"
       visible="true"
       enabled="true"
       dotted="false" />
  </sodipodi:namedview>
  <metadata
     id="metadata5">
    <rdf:RDF>
      <cc:Work
         rdf:about="">
        <dc:format>image/svg+xml</dc:format>
        <dc:type
           rdf:resource="http://purl.org/dc/dcmitype/StillImage" />
        <dc:title />
      </cc:Work>
    </rdf:RDF>
  </metadata>
  <g
     inkscape:label="Layer 1"
     inkscape:groupmode="layer"
     id="layer1"
     transform="translate(0,-263.13332)">
    <path
       style="color:#000000;font-style:normal;font-variant:normal;font-weight:normal;font-stretch:normal;font-size:medium;line-height:normal;font-family:sans-serif;font-variant-ligatures:normal;font-variant-position:normal;font-variant-caps:normal;font-variant-numeric:normal;font-variant-alternates:normal;font-feature-settings:normal;text-indent:0;text-align:start;text-decoration:none;text-decoration-line:none;text-decoration-style:solid;text-decoration-color:#000000;letter-spacing:normal;word-spacing:normal;text-transform:none;writing-mode:lr-tb;direction:ltr;text-orientation:mixed;dominant-baseline:auto;baseline-shift:baseline;text-anchor:start;white-space:normal;shape-padding:0;clip-rule:nonzero;display:inline;overflow:visible;visibility:visible;opacity:1;isolation:auto;mix-blend-mode:normal;color-interpolation:sRGB;color-interpolation-filters:linearRGB;solid-color:#000000;solid-opacity:1;vector-effect:none;fill:#8a2be2;fill-opacity:1;fill-rule:nonzero;stroke:none;stroke-width:0.5291667;stroke-linecap:round;stroke-linejoin:miter;stroke-miterlimit:4;stroke-dasharray:none;stroke-dashoffset:0;stroke-opacity:1;color-rendering:auto;image-rendering:auto;shape-rendering:auto;text-rendering:auto;enable-background:accumulate"
       d="m 5.8204235,263.6625 c -0.5813543,0 -1.0588262,0.47748 -1.0588262,1.05883 0,0.1186 0.024426,0.23068 0.060977,0.33744 -2.2794423,0.65743 -3.5248295,1.64347 -4.02550302,2.84785 -0.51543674,1.23989 -0.22655031,2.63413 0.35345882,4.00795 0.5800092,1.37384 1.4609691,2.75035 2.2168687,3.99608 0.5500653,0.90651 1.0253574,1.74903 1.2784462,2.43392 -0.2216441,0.15 -0.3527816,0.4016 -0.3488081,0.6692 0,1.29658 0.5763124,2.36751 1.4138352,3.04111 0.7887408,0.63436 1.7776484,0.94345 2.7692774,0.9777 0.065349,2.39 0.5451791,5.54914 2.0313535,8.22727 1.608759,2.89903 4.433468,5.21097 9.068492,5.21097 3.849279,0 7.003425,-1.15949 8.985813,-4.08392 1.95933,-2.89043 2.768008,-7.44888 2.14504,-14.22682 1.539403,-0.63396 2.626652,-2.14767 2.626652,-3.91338 0,-2.33484 -1.899451,-4.2343 -4.234269,-4.2343 -2.334821,0 -4.232205,1.89946 -4.232205,4.2343 0,2.33484 1.897384,4.23223 4.232205,4.23223 0.377565,0 0.741742,-0.0547 1.090347,-0.1478 0.595426,6.64474 -0.224481,11.04357 -2.064945,13.75863 -1.873647,2.76403 -4.803828,3.8519 -8.548638,3.8519 -4.461578,0 -7.064555,-2.16082 -8.605481,-4.9376 -1.4217373,-2.56202 -1.8985665,-5.64895 -1.9646931,-7.97768 0.936852,-0.0611 1.8616851,-0.37164 2.6075331,-0.9715 0.837522,-0.6736 1.411768,-1.74453 1.411768,-3.04111 -2.64e-4,-0.26425 -0.131998,-0.51105 -0.351391,-0.65835 0.2515,-0.68675 0.728143,-1.53361 1.281029,-2.44477 0.7559,-1.24573 1.638927,-2.62224 2.218936,-3.99608 0.58001,-1.37382 0.866828,-2.76806 0.351392,-4.00795 -0.509515,-1.22571 -1.786766,-2.22584 -4.14384,-2.88298 0.02931,-0.0966 0.05013,-0.1966 0.05013,-0.30231 0,-0.58135 -0.476954,-1.05883 -1.058309,-1.05883 -0.581354,0 -1.058826,0.47748 -1.058826,1.05883 0,0.58136 0.477472,1.05831 1.058826,1.05831 0.281119,0 0.536321,-0.11304 0.726554,-0.29403 0.0197,0.0109 0.04072,0.0192 0.06253,0.0248 2.324514,0.63343 3.440693,1.55547 3.874612,2.59928 0.433918,1.04379 0.202883,2.28478 -0.351392,3.59766 -0.554276,1.31288 -1.421132,2.67646 -2.18173,3.92992 -0.569316,0.93824 -1.083914,1.80647 -1.353375,2.58792 -0.404599,0.0414 -0.712483,0.38186 -0.713119,0.78857 0,0.85796 -0.318186,1.40137 -0.820086,1.80503 -0.5019,0.40367 -1.223587,0.63251 -1.9569414,0.63251 -0.7333545,0 -1.4571095,-0.22884 -1.9590093,-0.63251 -0.5018998,-0.40366 -0.8200866,-0.94707 -0.8200864,-1.80503 0.00651,-0.41314 -0.3050031,-0.76219 -0.7162193,-0.80253 -0.2707301,-0.7779 -0.7822023,-1.64169 -1.3482076,-2.57448 -0.7605975,-1.25346 -1.6295215,-2.61652 -2.1837966,-3.9294 -0.5542753,-1.31288 -0.78324316,-2.55387 -0.3493248,-3.59766 0.4320894,-1.03941 1.5416032,-1.95783 3.8461899,-2.59101 0.1857217,0.16035 0.424157,0.26095 0.6867643,0.26095 0.5813542,0 1.0583094,-0.47695 1.0583094,-1.05831 0,-0.58135 -0.4769552,-1.05883 -1.0583094,-1.05883 z m 0,0.52967 c 0.2953778,0 0.5291547,0.23378 0.5291547,0.52916 0,0.29539 -0.2337769,0.52916 -0.5291547,0.52916 -0.2953779,0 -0.5291547,-0.23377 -0.5291547,-0.52916 0,-0.29538 0.2337768,-0.52916 0.5291547,-0.52916 z m 5.5566405,0 c 0.295378,0 0.529155,0.23378 0.529155,0.52916 0,0.29539 -0.233777,0.52916 -0.529155,0.52916 -0.295377,0 -0.529671,-0.23377 -0.529671,-0.52916 0,-0.29538 0.234294,-0.52916 0.529671,-0.52916 z m 17.726167,6.34939 c 2.048842,0 3.705114,1.65629 3.705114,3.70514 0,1.56464 -0.967239,2.89614 -2.336236,3.43952 -0.248041,0.0904 0,0 -0.248041,0.0904 -0.353595,0.11173 -0.729866,0.17312 -1.120837,0.17312 -2.048845,0 -3.703051,-1.65422 -3.703051,-3.70307 0,-2.04885 1.654206,-3.70514 3.703051,-3.70514 z m 0,1.8536 c -1.019721,0 -1.851526,0.83181 -1.851526,1.85154 0,1.01973 0.831805,1.85153 1.851526,1.85153 1.019718,0 1.853591,-0.8318 1.853591,-1.85153 0,-1.01973 -0.833873,-1.85154 -1.853591,-1.85154 z m 0,0.52916 c 0.733741,0 1.323918,0.58863 1.323918,1.32238 0,0.73375 -0.590177,1.32186 -1.323918,1.32186 -0.733745,0 -1.322371,-0.58811 -1.322371,-1.32186 0,-0.73375 0.588626,-1.32238 1.322371,-1.32238 z"
       id="path1192"
       inkscape:connector-curvature="0"
       sodipodi:nodetypes="sscsccccsccsscssssccsccsccccccsssscccssccsssccssccsssssssssssssssccsssssssssssss" />
  </g>
</svg>
