<?xml version="1.0" encoding="UTF-8" standalone="no"?> <svg xmlns="http://www.w3.org/2000/svg" viewBox="0 0 512 512"><title>Tooth</title><g id="Tooth"><path d="M409.25,57.51c-18.78-17.7-42.87-23.28-67.85-15.72h0L300.93,54.06a152.1,152.1,0,0,1-89.86,0L170.6,41.79c-25-7.56-49.07-2-67.85,15.72C74.43,84.2,63.51,132.31,74.93,180.07L137.14,440.2a44.2,44.2,0,0,0,14.26,23.29H20a5,5,0,0,0,0,10H432a5,5,0,0,0,0-10H360.6a44.2,44.2,0,0,0,14.26-23.29l62.21-260.13C448.49,132.31,437.57,84.2,409.25,57.51Zm-214.07,406a20.46,20.46,0,0,0,2.83-8.9c2.72-35.52,10.91-77.24,21.38-108.89C230.87,311,244.56,290.26,256,290.26S281.13,311,292.61,345.7c10.47,31.65,18.66,73.37,21.38,108.88a20.5,20.5,0,0,0,2.83,8.91ZM427.34,177.74,365.13,437.87c-3.49,14.61-16.78,25.62-30.9,25.62h-.13A10.4,10.4,0,0,1,324,453.82c-2.78-36.27-11.15-78.9-21.86-111.26-13.67-41.34-29.18-62.3-46.1-62.3s-32.43,21-46.1,62.3c-10.71,32.36-19.08,75-21.86,111.26a10.4,10.4,0,0,1-10.15,9.67h-.12c-14.12,0-27.41-11-30.9-25.62L84.66,177.74c-5.32-22.24-5.56-44.89-.7-65.48,4.64-19.61,13.5-36,25.65-47.47C121,54.08,140.27,43.06,167.7,51.36l40.47,12.27a162,162,0,0,0,95.66,0L344.3,51.36h0c27.43-8.3,46.73,2.72,58.09,13.43,12.15,11.44,21,27.86,25.65,47.47C432.9,132.85,432.66,155.5,427.34,177.74Z"/><path d="M402.35,103.28a5,5,0,0,0-3.07,6.36c6.33,18.21,7,40.16,1.79,61.82l-8.53,35.66a5,5,0,0,0,3.7,6,5.24,5.24,0,0,0,1.17.13,5,5,0,0,0,4.86-3.83l8.53-35.66c5.62-23.5,4.88-47.44-2.08-67.43A5,5,0,0,0,402.35,103.28Z"/><path d="M393.79,80.29c-8.23-9.13-17.83-14.08-28.56-14.71a5,5,0,1,0-.59,10c8,.47,15.31,4.32,21.72,11.42a5,5,0,0,0,7.43-6.69Z"/><path d="M492,463.49H462a5,5,0,0,0,0,10h30a5,5,0,0,0,0-10Z"/></g></svg>